# xmcd
#
# Track frame offsets: 
#        150
#        16700
#        35102
#        51464
#        66171
#        85946
#        101559
#        119277
#        136663
#        153325
#        170114
#        185432
#        204104
#        217703
#
# Disc length: 3119 seconds
#
# Revision: 4
# Processed by: cddbd v1.5.2PL0 Copyright (c) Steve Scherf et al.
# Submitted via: ExactAudioCopy v0.95b4
#
DISCID=b80c2d0e
DTITLE=Various Artist - Hot Hits Country Volume 72
DYEAR=1997
DGENRE=Country
TTITLE0=Shania Twain - Love Gets Me Every Time
TTITLE1=Toby Keith and Sting - I'm So Happy I Can't Stop Crying
TTITLE2=Martina McBride - A Broken Wing
TTITLE3=Mindy McCready - What If I Do
TTITLE4=Blackhawk - Postmarked Birmingham
TTITLE5=Ty Herndon - I Have To Surrender
TTITLE6=Lonestar - You Walked In
TTITLE7=The Buffalo Club - Heart Hold On
TTITLE8=John Berry - The Stone
TTITLE9=Big House - Love Ain't Easy
TTITLE10=Paul Brandt - A Little In Love
TTITLE11=John Anderson - Small Town
TTITLE12=Rick Trevino - See Rock City
TTITLE13=Patty Loveless and George Jones - You Don't Seem To Miss Me
EXTD=Licensed exclusively for CD juke boxes by Universal Music Special
EXTD=Markets Inc. Licensed for Hot Hits, Inc., P. O. Box 41800 Nashvi
EXTD=lle, TN 37204 IIMD #37154
EXTT0=Shania Twain\n
EXTT1=Toby Keith w/ Sting
EXTT2=Martina McBride
EXTT3=Mindy McCready
EXTT4=Blackhawk
EXTT5=Ty Herndon
EXTT6=Lonestar
EXTT7=The Buffalo Club
EXTT8=John Berry
EXTT9=Big House
EXTT10=Paul Brandt
EXTT11=John Anderson
EXTT12=Rick Trevino
EXTT13=Patty Loveless w/ George Jones
PLAYORDER=
